<svg width="70px" height="70px" viewBox="0 0 65 65" version="1.1" xmlns="http://www.w3.org/2000/svg" xmlns:xlink="http://www.w3.org/1999/xlink"> <g> <g id="adapt_square_gradientone"> <path fill="#FFFFFF" id="Shape" d="m13.743321,28.358779c-2.62977,0 -4.78817,2.28244 -4.78817,5.03626c0,2.75381 2.1584,5.03626 4.78817,5.03626c1.01718,0 1.93512,-0.32252 2.72901,-0.89313l0,0.76908l2.05916,0l0,-4.91221c0,-2.75382 -2.1584,-5.03626 -4.78817,-5.03626zm0,7.8645c-1.51336,0 -2.72901,-1.26526 -2.72901,-2.82824c0,-1.58779 1.21565,-2.82825 2.72901,-2.82825c1.51336,0 2.72901,1.26527 2.72901,2.82825c-0.02481,1.53817 -1.24046,2.82824 -2.72901,2.82824zm20.69084,-7.8645c-2.62977,0 -4.78817,2.23282 -4.78817,5.03626c0,2.75381 2.1584,5.03626 4.78817,5.03626c1.01718,0 1.93511,-0.32252 2.72901,-0.89313l0,0.76908l2.05916,0l0,-4.91221c0,-2.75382 -2.1584,-5.03626 -4.78817,-5.03626zm0,7.8645c-1.51336,0 -2.72901,-1.26526 -2.72901,-2.82824c0,-1.58779 1.21565,-2.82825 2.72901,-2.82825c1.51336,0 2.72901,1.26527 2.72901,2.82825c-0.04962,1.53817 -1.26527,2.82824 -2.72901,2.82824zm-7.64122,-6.97137c-0.76908,-0.57061 -1.71183,-0.89313 -2.72901,-0.89313c-2.62977,0 -4.78817,2.23282 -4.78817,5.03626c0,2.75381 2.1584,5.03626 4.78817,5.03626c2.62977,0 4.78817,-2.23283 4.78817,-5.03626l0,-8.85687l-2.05916,0l0,4.71374zm-2.7042,6.97137c-1.51336,0 -2.72901,-1.26526 -2.72901,-2.82824c0,-1.56298 1.21565,-2.82825 2.72901,-2.82825c1.51336,0 2.72901,1.26527 2.72901,2.82825c-0.02481,1.53817 -1.24046,2.82824 -2.72901,2.82824zm20.64122,-7.8645c-2.62977,0 -4.78817,2.23282 -4.78817,5.03626l0,7.39313l2.05916,0l0,-3.25c0.76909,0.57061 1.71184,0.89313 2.72901,0.89313c2.62977,0 4.78817,-2.23283 4.78817,-5.03626c0,-2.75382 -2.1584,-5.03626 -4.78817,-5.03626zm0,7.8645c-1.51336,0 -2.72901,-1.26526 -2.72901,-2.82824c0,-1.58779 1.21565,-2.82825 2.72901,-2.82825c1.51336,0 2.72901,1.26527 2.72901,2.82825c0,1.53817 -1.21565,2.82824 -2.72901,2.82824zm10.34542,0c0,0 -0.71946,0 -1.41412,-0.37213c-0.89313,-0.44657 -1.29008,-1.26527 -1.29008,-2.48092l0,-2.82825l1.78626,0l0,-2.1832l-1.78626,0l0,-3.82061l-2.05916,0l0,8.85687c0,2.03435 0.84351,3.57252 2.4313,4.41603c1.14122,0.62023 2.23283,0.62023 2.35687,0.62023l0.94275,0l0,-2.20802l-0.96756,0z"></path> <rect stroke="null" id="svg_2" height="0.749997" width="65.374695" y="0.12515" x="-0.437344" stroke-width="null" fill="#ffffff"></rect> <rect stroke="null" id="svg_3" height="64.749701" width="1.124995" y="-0.124846" x="-0.062351" fill-opacity="null" stroke-opacity="null" stroke-width="null" fill="#ffffff"></rect> <rect stroke="null" id="svg_4" height="0.749997" width="64.624695" y="64.124857" x="0.125153" fill-opacity="null" stroke-opacity="null" stroke-width="null" fill="#ffffff"></rect> <rect id="svg_5" height="62.874712" width="0.874996" y="1.250143" x="63.999856" fill-opacity="null" stroke-opacity="null" stroke-width="null" stroke="null" fill="#ffffff"></rect> </g> </g></svg>
